<svg xmlns="http://www.w3.org/2000/svg" width="100%" viewBox="0 0 330.2 72" role="img" aria-label="Stylish PIM"><title>Stylish PIM</title><desc>Logo horizontal de Stylish PIM: tres tarjetas apiladas (beige, carbon y rojo) con cuadricula de puntos, junto al nombre stylish PIM.</desc><rect x="8" y="12" width="40" height="34" rx="9" fill="#ccc1b6"/><rect x="16" y="19" width="40" height="34" rx="9" fill="#474747"/><rect x="24" y="26" width="40" height="34" rx="9" fill="#8b0000"/><circle cx="37" cy="36" r="3.4" fill="#ffffff"/><circle cx="51" cy="36" r="3.4" fill="#ffffff"/><circle cx="37" cy="50" r="3.4" fill="#ffffff"/><circle cx="51" cy="50" r="3.4" fill="#ffffff"/><g transform="translate(88.0,51.0) scale(0.04700,-0.04700)"><path d="M87.142578125 159.000732421875 24.142578125 77.9990234375Q49.5716552734375 53.1419677734375 82.14337158203125 31.4278564453125Q114.715087890625 9.7137451171875 155.5723876953125 -3.3575439453125Q196.4296875 -16.4288330078125 245.001220703125 -16.4288330078125Q323.7158203125 -16.4288330078125 368.71588134765625 22.07110595703125Q413.7159423828125 60.571044921875 413.7159423828125 130Q413.7159423828125 172.2857666015625 394.85882568359375 198.2857666015625Q376.001708984375 224.2857666015625 344.716064453125 241.71429443359375Q313.430419921875 259.142822265625 276.4305419921875 273.428466796875Q245.5731201171875 285.5714111328125 222.50164794921875 294.8570556640625Q199.43017578125 304.1427001953125 186.50164794921875 315.35687255859375Q173.5731201171875 326.571044921875 173.5731201171875 342.4281005859375Q173.5731201171875 358.5706787109375 186.4300537109375 367.427734375Q199.2869873046875 376.2847900390625 221.286865234375 376.2847900390625Q253.858154296875 376.2847900390625 288.3583984375 359.07049560546875Q322.858642578125 341.856201171875 348.2874755859375 314.5704345703125L405.4300537109375 395.0006103515625Q382.8582763671875 416.7147216796875 354.0009765625 433.2860107421875Q325.1436767578125 449.8572998046875 291.14361572265625 459.92864990234375Q257.1435546875 470 218.0006103515625 470Q172.4288330078125 470 134.9287109375 455.7142333984375Q97.4285888671875 441.428466796875 75.28570556640625 412.92840576171875Q53.142822265625 384.4283447265625 53.142822265625 342.5711669921875Q53.142822265625 299.9996337890625 72.57135009765625 272.42816162109375Q91.9998779296875 244.856689453125 122.0712890625 228.356689453125Q152.1427001953125 211.856689453125 183.8570556640625 200.2852783203125Q217.7144775390625 188.99951171875 240.0001220703125 178.7852783203125Q262.2857666015625 168.571044921875 273.4998779296875 156.14263916015625Q284.7139892578125 143.7142333984375 284.7139892578125 126.14306640625Q284.7139892578125 106.4290771484375 270.78564453125 94.786376953125Q256.8572998046875 83.1436767578125 230.5718994140625 83.1436767578125Q211.1436767578125 83.1436767578125 188.5008544921875 90.85784912109375Q165.8580322265625 98.572021484375 140.78631591796875 115.50054931640625Q115.714599609375 132.4290771484375 87.142578125 159.000732421875Z" fill="#0c0c0c" transform="translate(0.0,0)"/><path d="M5 460V350.712890625H288.5736083984375V460ZM84.285888671875 620V0H209.2877197265625V620Z" fill="#0c0c0c" transform="translate(439.0,0)"/><path d="M502.1453857421875 460H367.1435546875L221.71484375 95.8568115234375L285.5732421875 93.5711669921875L137.85888671875 460H-6.4288330078125L185.428955078125 45.7135009765625L69.2864990234375 -220H202.1453857421875Z" fill="#0c0c0c" transform="translate(733.0,0)"/><path d="M64.2852783203125 780V0H193.572998046875V780Z" fill="#0c0c0c" transform="translate(1229.0,0)"/><path d="M57.8564453125 637.99951171875Q57.8564453125 606.570556640625 80.7852783203125 585.5703735351562Q103.714111328125 564.5701904296875 135.5716552734375 564.5701904296875Q168.0006103515625 564.5701904296875 190.64373779296875 585.5703735351562Q213.286865234375 606.570556640625 213.286865234375 637.99951171875Q213.286865234375 669.9998779296875 190.64373779296875 690.71435546875Q168.0006103515625 711.4288330078125 135.5716552734375 711.4288330078125Q103.714111328125 711.4288330078125 80.7852783203125 690.71435546875Q57.8564453125 669.9998779296875 57.8564453125 637.99951171875ZM72.4278564453125 460V0H198.286865234375V460Z" fill="#0c0c0c" transform="translate(1487.0,0)"/><path d="M87.142578125 159.000732421875 24.142578125 77.9990234375Q49.5716552734375 53.1419677734375 82.14337158203125 31.4278564453125Q114.715087890625 9.7137451171875 155.5723876953125 -3.3575439453125Q196.4296875 -16.4288330078125 245.001220703125 -16.4288330078125Q323.7158203125 -16.4288330078125 368.71588134765625 22.07110595703125Q413.7159423828125 60.571044921875 413.7159423828125 130Q413.7159423828125 172.2857666015625 394.85882568359375 198.2857666015625Q376.001708984375 224.2857666015625 344.716064453125 241.71429443359375Q313.430419921875 259.142822265625 276.4305419921875 273.428466796875Q245.5731201171875 285.5714111328125 222.50164794921875 294.8570556640625Q199.43017578125 304.1427001953125 186.50164794921875 315.35687255859375Q173.5731201171875 326.571044921875 173.5731201171875 342.4281005859375Q173.5731201171875 358.5706787109375 186.4300537109375 367.427734375Q199.2869873046875 376.2847900390625 221.286865234375 376.2847900390625Q253.858154296875 376.2847900390625 288.3583984375 359.07049560546875Q322.858642578125 341.856201171875 348.2874755859375 314.5704345703125L405.4300537109375 395.0006103515625Q382.8582763671875 416.7147216796875 354.0009765625 433.2860107421875Q325.1436767578125 449.8572998046875 291.14361572265625 459.92864990234375Q257.1435546875 470 218.0006103515625 470Q172.4288330078125 470 134.9287109375 455.7142333984375Q97.4285888671875 441.428466796875 75.28570556640625 412.92840576171875Q53.142822265625 384.4283447265625 53.142822265625 342.5711669921875Q53.142822265625 299.9996337890625 72.57135009765625 272.42816162109375Q91.9998779296875 244.856689453125 122.0712890625 228.356689453125Q152.1427001953125 211.856689453125 183.8570556640625 200.2852783203125Q217.7144775390625 188.99951171875 240.0001220703125 178.7852783203125Q262.2857666015625 168.571044921875 273.4998779296875 156.14263916015625Q284.7139892578125 143.7142333984375 284.7139892578125 126.14306640625Q284.7139892578125 106.4290771484375 270.78564453125 94.786376953125Q256.8572998046875 83.1436767578125 230.5718994140625 83.1436767578125Q211.1436767578125 83.1436767578125 188.5008544921875 90.85784912109375Q165.8580322265625 98.572021484375 140.78631591796875 115.50054931640625Q115.714599609375 132.4290771484375 87.142578125 159.000732421875Z" fill="#0c0c0c" transform="translate(1758.0,0)"/><path d="M193.572998046875 780H64.2852783203125V0H193.572998046875ZM361.42822265625 280V0H490.7159423828125V298.57177734375Q490.7159423828125 356.4288330078125 473.7874755859375 395.5716552734375Q456.8590087890625 434.7144775390625 422.00189208984375 454.7144775390625Q387.144775390625 474.7144775390625 332.7159423828125 474.7144775390625Q278.7156982421875 474.7144775390625 242.00140380859375 448.64300537109375Q205.287109375 422.571533203125 186.4300537109375 378.7857666015625Q167.572998046875 335 167.572998046875 280H193.572998046875Q193.572998046875 308.714111328125 204.85858154296875 329.78533935546875Q216.1441650390625 350.8565673828125 236.85821533203125 362.4278564453125Q257.572265625 373.9991455078125 284.857666015625 373.9991455078125Q325.7144775390625 373.9991455078125 343.57135009765625 349.92791748046875Q361.42822265625 325.856689453125 361.42822265625 280Z" fill="#0c0c0c" transform="translate(2197.0,0)"/><path d="M75.714111328125 700V0H218.5736083984375V700ZM163.4300537109375 579.2840576171875H302.1441650390625Q358.572265625 579.2840576171875 391.85760498046875 553.4271850585938Q425.1429443359375 527.5703125 425.1429443359375 477.142333984375Q425.1429443359375 427.2857666015625 391.85760498046875 401.1431884765625Q358.572265625 375.0006103515625 302.1441650390625 375.0006103515625H163.4300537109375V254.28466796875H302.1441650390625Q385.144775390625 254.28466796875 443.3592529296875 281.28472900390625Q501.57373046875 308.2847900390625 532.6451416015625 358.57061767578125Q563.716552734375 408.8564453125 563.716552734375 477.142333984375Q563.716552734375 546.42822265625 532.6451416015625 596.2140502929688Q501.57373046875 645.9998779296875 443.3592529296875 672.9999389648438Q385.144775390625 700 302.1441650390625 700H163.4300537109375Z" fill="#8b0000" transform="translate(3052.0,0)"/><path d="M75.714111328125 700V0H220.716552734375V700Z" fill="#8b0000" transform="translate(3651.0,0)"/><path d="M230.14501953125 392.8538818359375 432.8582763671875 65 635.571533203125 392.8538818359375 680.714111328125 0H830.00244140625L725.7159423828125 735L432.8582763671875 283.2879638671875L140.0006103515625 735L35.714111328125 0H185.00244140625Z" fill="#8b0000" transform="translate(3947.0,0)"/></g></svg>
